<svg xmlns="http://www.w3.org/2000/svg" width="39.335" height="39.335" viewBox="0 0 39.335 39.335"><defs><style>.a{fill:none;}</style></defs><path class="a" d="M0,0H39.335V39.335H0Z"/><path d="M18.39,2A16.39,16.39,0,1,0,34.78,18.39,16.4,16.4,0,0,0,18.39,2ZM10.31,28.683c.7-1.475,5-2.917,8.08-2.917s7.392,1.442,8.08,2.917a12.99,12.99,0,0,1-16.16,0Zm18.5-2.377c-2.344-2.852-8.031-3.819-10.424-3.819s-8.08.967-10.424,3.819a13.112,13.112,0,1,1,20.848,0ZM18.39,8.556a5.736,5.736,0,1,0,5.736,5.736A5.722,5.722,0,0,0,18.39,8.556Zm0,8.195a2.458,2.458,0,1,1,2.458-2.458A2.455,2.455,0,0,1,18.39,16.751Z" transform="translate(1.278 1.278)"/></svg>