<svg xmlns="http://www.w3.org/2000/svg" width="39.335" height="39.335" viewBox="0 0 39.335 39.335"><defs><style>.a{fill:none;}</style></defs><path class="a" d="M0,0H39.335V39.335H0Z"/><path d="M24.847,20.029a3.262,3.262,0,0,0,2.868-1.688L33.583,7.7a1.633,1.633,0,0,0-1.426-2.426H7.9L6.359,2H1V5.278H4.278l5.9,12.44-2.213,4a3.284,3.284,0,0,0,2.868,4.868H30.5V23.307H10.834l1.8-3.278ZM9.457,8.556H29.371l-4.524,8.195H13.341Zm1.377,19.668A3.278,3.278,0,1,0,14.112,31.5,3.274,3.274,0,0,0,10.834,28.224Zm16.39,0A3.278,3.278,0,1,0,30.5,31.5,3.274,3.274,0,0,0,27.224,28.224Z" transform="translate(0.639 1.278)"/></svg>