<svg xmlns="http://www.w3.org/2000/svg" width="92.847" height="93.467" viewBox="0 0 92.847 93.467"><defs><style>.a{fill:#ffcc21;}</style></defs><g transform="translate(0)"><path class="a" d="M88.51,51.536H85.438A23.957,23.957,0,0,0,62.232,29.107a43.682,43.682,0,0,0-1.137-4.527h1.957A19.49,19.49,0,0,0,82.52,5.113v-1.5H78.028A19.5,19.5,0,0,0,58.98,19.069,43.861,43.861,0,0,0,52.2,8.62L49.945,10.59A40.841,40.841,0,0,1,59.173,29.2,24.043,24.043,0,0,0,45.648,35.12a19.534,19.534,0,0,0-7.325-9.955,21.459,21.459,0,0,1,7.283-7.238L51.153,14.6l-8.472-.942a13.081,13.081,0,0,0-3.364.07,21.458,21.458,0,0,1,6.288-5.757l5.547-3.33L42.681,3.7A13.31,13.31,0,0,0,32.03,7.383a16,16,0,0,0-3.859-6.324L27.112,0,26.053,1.059A15.972,15.972,0,0,0,22.2,7.382,13.276,13.276,0,0,0,11.543,3.7L3.07,4.638,8.617,7.967a21.474,21.474,0,0,1,6.29,5.76,13.082,13.082,0,0,0-3.364-.072L3.072,14.6l5.547,3.331A21.472,21.472,0,0,1,15.9,25.165,19.445,19.445,0,0,0,7.644,41.053V51.536h-3a4.493,4.493,0,1,0,0,8.985h.076A28.478,28.478,0,0,0,27.112,86.829v6.637H66.047V86.829A28.477,28.477,0,0,0,88.433,60.521h.077a4.493,4.493,0,1,0,0-8.985ZM78.028,6.61h1.43A16.5,16.5,0,0,1,63.052,21.585h-1.43A16.5,16.5,0,0,1,78.028,6.61ZM59.666,32.168a40.753,40.753,0,0,1,.391,5.336v1.823a3.856,3.856,0,0,1-3-3.513h-3c0,3.715,3.359,6.739,7.488,6.739s7.488-3.024,7.488-6.739h-3a3.856,3.856,0,0,1-3,3.513V37.5a43.721,43.721,0,0,0-.34-5.377A20.963,20.963,0,0,1,82.443,51.536H46.58V41.053a19.293,19.293,0,0,0-.177-2.482A21.011,21.011,0,0,1,59.666,32.168Zm9,30.045a15.5,15.5,0,0,1-29.2,0l-2.744-7.682H71.412ZM26.234,51.536,22.49,47.792l4.621-4.621,4.621,4.621-3.744,3.744Zm-4.235,0H18.747l1.626-1.626ZM37.646,28.4l-3.795,3.8-4.621-4.621,2.36-2.36A16.443,16.443,0,0,1,37.646,28.4ZM27.112,25.458l-.836-.836c.279-.013.554-.042.836-.042s.557.029.836.042Zm-4.478-.243,2.36,2.36L20.373,32.2l-3.8-3.8A16.446,16.446,0,0,1,22.634,25.215Zm4.478,4.478,4.621,4.621-4.621,4.621L22.49,34.314Zm16.473,11.36v.877l-.877-.877.836-.836C43.556,40.5,43.584,40.772,43.584,41.053Zm0,5.113v5.37H39.712l-3.744-3.744,4.621-4.621Zm-9.734-.491-4.621-4.621,4.621-4.621,4.621,4.621Zm-8.856-4.621-4.621,4.621-4.621-4.621,4.621-4.621Zm8.856,8.856,1.626,1.626H32.224Zm9.1-13.334-2.36,2.36-4.621-4.621,3.794-3.8A16.437,16.437,0,0,1,42.95,36.575Zm-.774-19.961a24.435,24.435,0,0,0-6.4,7.031,19.283,19.283,0,0,0-3.684-1.39A10.262,10.262,0,0,1,42.175,16.614Zm0-9.959a24.44,24.44,0,0,0-7.292,8.575c-.3.165-.593.337-.877.524L32.928,10.9A10.244,10.244,0,0,1,42.175,6.655ZM27.112,4.373a13.049,13.049,0,0,1,2.452,5.2l1.862,8.381a13.093,13.093,0,0,0-2.384,3.731,19.147,19.147,0,0,0-1.93-.1c-.652,0-1.3.034-1.93.1A13.03,13.03,0,0,0,22.8,17.957L24.66,9.571A13.034,13.034,0,0,1,27.112,4.373ZM12.048,6.655A10.248,10.248,0,0,1,21.3,10.9l-1.08,4.858c-.283-.186-.575-.358-.872-.521A24.458,24.458,0,0,0,12.048,6.655Zm0,9.959a10.256,10.256,0,0,1,10.084,5.641,19.381,19.381,0,0,0-3.684,1.39A24.414,24.414,0,0,0,12.048,16.614ZM14.46,30.519l3.795,3.8-4.621,4.621-2.36-2.36A16.446,16.446,0,0,1,14.46,30.519Zm-3.78,9.7.836.836-.877.877v-.877C10.639,40.772,10.667,40.5,10.681,40.217Zm-.042,5.948,3-3,4.621,4.621-3.744,3.744H10.639ZM3.151,56.029a1.5,1.5,0,0,1,1.5-1.5h28.9l1.069,3H4.649A1.5,1.5,0,0,1,3.151,56.029Zm59.9,34.443H30.107V87.316a28.741,28.741,0,0,0,3,.16H60.057a28.752,28.752,0,0,0,3-.16Zm-3-5.99H33.1A25.468,25.468,0,0,1,7.72,60.521H35.685l.964,2.7a18.495,18.495,0,0,0,34.836,0l.963-2.7H85.438A25.468,25.468,0,0,1,60.057,84.482ZM88.51,57.526H73.52l1.07-3H88.51a1.5,1.5,0,0,1,0,3Zm0,0" transform="translate(-0.156)"/><path class="a" d="M74.86,367.3l-2.591,1.5a22.555,22.555,0,0,0,19.447,11.229v-3A19.552,19.552,0,0,1,74.86,367.3Zm0,0" transform="translate(-58.77 -298.542)"/><path class="a" d="M61.858,337.6l-2.924.641a22.073,22.073,0,0,0,.962,3.212l2.8-1.073A19.249,19.249,0,0,1,61.858,337.6Zm0,0" transform="translate(-47.931 -274.406)"/><path class="a" d="M224.156,307.313h3v3h-3Zm0,0" transform="translate(-182.225 -249.786)"/><path class="a" d="M264.156,355.313h3v3h-3Zm0,0" transform="translate(-214.738 -288.801)"/><path class="a" d="M296.156,315.313h3v3h-3Zm0,0" transform="translate(-240.748 -256.289)"/><path class="a" d="M344.156,307.313h3v3h-3Zm0,0" transform="translate(-279.762 -249.786)"/></g></svg>