<svg xmlns="http://www.w3.org/2000/svg" width="28.047" height="29.229" viewBox="0 0 28.047 29.229"><defs><style>.a{fill:#ffcc21;}</style></defs><g transform="translate(-10.359 0.002)"><g transform="translate(10.359 -0.002)"><g transform="translate(0 0)"><path class="a" d="M37.053,14.991a.857.857,0,0,1,0-.757L38.143,12a2.537,2.537,0,0,0-1.095-3.37L34.856,7.471a.857.857,0,0,1-.445-.612l-.429-2.445a2.538,2.538,0,0,0-2.866-2.083l-2.458.348a.857.857,0,0,1-.72-.234L26.154.719a2.537,2.537,0,0,0-3.543,0L20.827,2.445a.857.857,0,0,1-.72.234l-2.458-.348a2.537,2.537,0,0,0-2.866,2.083l-.429,2.445a.857.857,0,0,1-.445.613L11.716,8.635A2.537,2.537,0,0,0,10.621,12l1.09,2.23a.857.857,0,0,1,0,.757l-1.09,2.23a2.537,2.537,0,0,0,1.095,3.37l2.193,1.163a.857.857,0,0,1,.445.612l.429,2.445a2.536,2.536,0,0,0,2.5,2.108,2.607,2.607,0,0,0,.365-.026l2.458-.348a.856.856,0,0,1,.72.234l1.784,1.726a2.537,2.537,0,0,0,3.543,0l1.784-1.726a.857.857,0,0,1,.72-.234l2.458.348a2.537,2.537,0,0,0,2.866-2.083l.429-2.445a.857.857,0,0,1,.445-.613l2.193-1.163a2.537,2.537,0,0,0,1.095-3.37ZM21.011,7.027a3.091,3.091,0,1,1-3.091,3.091A3.094,3.094,0,0,1,21.011,7.027Zm-1.6,13.745a.843.843,0,0,1-1.192-1.192L29.349,8.454a.843.843,0,0,1,1.192,1.192ZM27.754,22.2a3.091,3.091,0,1,1,3.091-3.091A3.094,3.094,0,0,1,27.754,22.2Z" transform="translate(-10.359 0.002)"/></g></g><g transform="translate(26.349 17.704)"><path class="a" d="M291.857,310.141a1.4,1.4,0,1,0,1.4,1.4A1.406,1.406,0,0,0,291.857,310.141Z" transform="translate(-290.452 -310.141)"/></g><g transform="translate(19.606 8.712)"><g transform="translate(0)"><path class="a" d="M173.738,152.646a1.4,1.4,0,1,0,1.4,1.4A1.406,1.406,0,0,0,173.738,152.646Z" transform="translate(-172.333 -152.646)"/></g></g></g></svg>