<svg xmlns="http://www.w3.org/2000/svg" width="129.833" height="155.346" viewBox="0 0 129.833 155.346"><defs><style>.a{fill:#ffcc21;fill-rule:evenodd;}</style></defs><path class="a" d="M-441.513,6.37h1.73a69.366,69.366,0,0,1,.069-22.686l.069.138c1.106-.968,4.5-2.283,4.911-1.937,5.464,5.049,18.674,5.6,30.917-.207,13.487-6.363,30.156-27.528,25.383-29.4-4.772-1.8-27.666-3.389-41.153,3.043-12.45,5.949-19.575,16.462-17.361,23.171.138.485-1.175,1.868-2.766,1.868a225.967,225.967,0,0,1,0-39.909,8.029,8.029,0,0,1,8.3-2.213c5.672,2.144,14.526-.968,20.958-9.061,7.193-9.131,11.827-31.4,7.953-31.54s-20.2,5.049-27.389,14.179c-3.6,4.5-9.2,17.153-5.118,23.1.623.968-3.251,2.766-4.7,2.213-1.522-6.293-2.56-17.291,0-25.937,6.294-2.9,11.412-12.933,11.412-24.831,0-12.865-9.683-33.684-14.179-35.344-4.565,1.66-14.249,22.479-14.249,35.344,0,11.9,5.118,21.926,11.412,24.831,2.56,8.646,1.522,19.644,0,25.937-1.452.554-5.326-1.244-4.7-2.213,4.081-5.949-1.521-18.606-5.118-23.1-7.193-9.13-23.516-14.318-27.389-14.179s.76,22.409,7.953,31.54c6.432,8.092,15.355,11.2,20.957,9.061a8.03,8.03,0,0,1,8.3,2.213,225.967,225.967,0,0,1,0,39.909c-1.591,0-2.9-1.383-2.766-1.868,2.214-6.709-4.911-17.222-17.361-23.171-13.487-6.432-36.381-4.841-41.153-3.043-4.772,1.868,11.9,23.033,25.383,29.4,12.243,5.81,25.453,5.256,30.917.207.416-.346,3.8.968,4.911,1.937l.069-.138a69.366,69.366,0,0,1,.069,22.686Z" transform="translate(507.432 148.977)"/></svg>