<svg xmlns="http://www.w3.org/2000/svg" xmlns:xlink="http://www.w3.org/1999/xlink" width="147.023" height="66" viewBox="0 0 147.023 66"><defs><style>.a{fill:none;clip-rule:evenodd;}.b,.c{fill:#00a44e;}.c,.d,.e{fill-rule:evenodd;}.d{fill:#fff;}.e{fill:#d0e187;}.f{clip-path:url(#a);}</style><clipPath id="a"><path class="a" d="M35.671-441.446c19.647,0,35.67-14.834,35.67-33.009s-16.023-32.991-35.67-32.991S0-492.63,0-474.455s16.024,33.009,35.671,33.009Z" transform="translate(0 507.446)"/></clipPath></defs><g transform="translate(0 507.446)"><g transform="translate(82.533 -496.226)"><path class="b" d="M267.652-388.312a28.087,28.087,0,0,0,3.926.245c3.133,0,5.643-.736,7.285-2.208,1.4-1.245,2.718-3.51,2.718-7.379,0-3.246-1-5.492-2.718-6.889-1.491-1.246-3.548-1.887-6.549-1.887a27.391,27.391,0,0,0-4.662.377Zm3.454-15.25a8.486,8.486,0,0,1,1.642-.132c3.208,0,5.209,2,5.209,6.1,0,4.737-2.208,6.776-5.511,6.757a7.223,7.223,0,0,1-1.34-.076Zm20.062,2.038a4.457,4.457,0,0,0-.774-.076,3.615,3.615,0,0,0-3.246,2.567h-.094l-.132-2.284H283.94c.038,1.189.094,2.472.094,4.1v8.983h3.473v-6.756c0-2.227,1.189-3.284,2.756-3.284a6.249,6.249,0,0,1,.906.057Zm5.511-3.36a1.783,1.783,0,0,0-1.887-1.85,1.784,1.784,0,0,0-1.85,1.85,1.8,1.8,0,0,0,1.85,1.868,1.788,1.788,0,0,0,1.887-1.868Zm-.113,3.567h-3.473v13.079h3.473Zm6.209,1.793-.17-1.793h-3.02c.038,1.208.094,2.586.094,4.284v14.023h3.473V-389.5h.038a3.648,3.648,0,0,0,3.114,1.529c2.642,0,5.36-2.114,5.36-6.926,0-4.02-2.114-6.7-4.964-6.7a4.335,4.335,0,0,0-3.869,2.076Zm.377,3.567a2.647,2.647,0,0,1,2.4-2.85c1.718,0,2.6,1.7,2.6,4.02,0,2.34-.925,4.077-2.68,4.077-1.17,0-2.321-.906-2.321-2.812Z" transform="translate(-267.652 426.568)"/><path class="b" d="M267.652-470.814h4.454v5.473l4.7-5.473h5.945l-5.284,5.454,5.511,9.021h-5.511l-3.039-5.964-2.321,2.416v3.548h-4.454Zm16.042,9.682,4.246-.264a3.4,3.4,0,0,0,.566,1.585,2.334,2.334,0,0,0,1.963.868,2.234,2.234,0,0,0,1.491-.453,1.349,1.349,0,0,0,.509-1.038,1.316,1.316,0,0,0-.491-1,5.687,5.687,0,0,0-2.284-.849,9.615,9.615,0,0,1-4.209-1.755,3.579,3.579,0,0,1-1.265-2.793,3.822,3.822,0,0,1,.661-2.114,4.168,4.168,0,0,1,1.944-1.548,8.979,8.979,0,0,1,3.548-.566,7.321,7.321,0,0,1,4.228,1.019,4.478,4.478,0,0,1,1.736,3.284l-4.208.245a2.307,2.307,0,0,0-.717-1.415,2.21,2.21,0,0,0-1.472-.434,1.788,1.788,0,0,0-1.189.321,1.007,1.007,0,0,0-.377.812.786.786,0,0,0,.321.623,3.691,3.691,0,0,0,1.491.529,18.282,18.282,0,0,1,4.209,1.283,4.472,4.472,0,0,1,1.85,1.6,4.045,4.045,0,0,1,.566,2.133,4.463,4.463,0,0,1-.774,2.567,4.805,4.805,0,0,1-2.151,1.793,8.746,8.746,0,0,1-3.473.6c-2.472,0-4.171-.472-5.115-1.434a5.55,5.55,0,0,1-1.6-3.6Zm15.4-9.682h4.171l5.454,8v-8h4.209v14.476H308.72l-5.417-7.945v7.945h-4.209Zm16.76,0h5.888l2.265,8.795,2.265-8.795h5.869v14.476h-3.661v-11.041l-2.831,11.041h-3.3l-2.831-11.041v11.041h-3.661Z" transform="translate(-267.652 471.059)"/></g><g transform="translate(0 -507.446)"><path class="c" d="M35.671-441.446c19.647,0,35.67-14.834,35.67-33.009s-16.023-32.991-35.67-32.991S0-492.63,0-474.455s16.024,33.009,35.671,33.009Z" transform="translate(0 507.446)"/><path class="d" d="M169.565-468.215a30.909,30.909,0,0,0,.283-4.208,30.131,30.131,0,0,0-.208-3.473c-11.06-4.888-18.685-15.457-24.045-27.782-1.038-.321-2.1-.6-3.171-.83,3.378,15.136,11.7,30.235,27.14,36.293Z" transform="translate(-98.507 505.414)"/><path class="e" d="M154.065-459.254a30.527,30.527,0,0,0,3.133-8.191c-14.514-2.793-25.781-23.233-28.442-39.2-1.17-.189-2.34-.34-3.529-.434.717,16.08,11.211,41.88,28.838,47.825Z" transform="translate(-86.612 507.192)"/><path class="d" d="M27.423-504.508c-1.076.227-2.133.51-3.171.83C18.911-491.353,11.267-480.784.208-475.9A30.13,30.13,0,0,0,0-472.423a30.91,30.91,0,0,0,.283,4.208c15.457-6.058,23.762-21.157,27.14-36.293Z" transform="translate(0 505.414)"/><path class="e" d="M34.419-507.079c-1.189.094-2.359.245-3.51.434-2.68,15.967-13.947,36.407-28.461,39.2a31.169,31.169,0,0,0,3.133,8.191C23.209-465.2,33.7-491,34.419-507.079Z" transform="translate(-1.693 507.192)"/><g class="f"><path class="d" d="M75.333-379.858h.472a18.928,18.928,0,0,1,.019-6.19l.019.038a2.6,2.6,0,0,1,1.34-.529c1.491,1.378,5.1,1.529,8.436-.056,3.68-1.736,8.229-7.512,6.926-8.021-1.3-.491-7.549-.925-11.23.83-3.4,1.623-5.341,4.492-4.737,6.323.038.132-.321.51-.755.51a61.66,61.66,0,0,1,0-10.89,2.191,2.191,0,0,1,2.265-.6c1.547.585,3.963-.264,5.719-2.472,1.963-2.491,3.227-8.569,2.17-8.606s-5.511,1.378-7.474,3.869c-.982,1.227-2.51,4.681-1.4,6.3.17.264-.887.755-1.283.6a15.132,15.132,0,0,1,0-7.077c1.718-.792,3.114-3.529,3.114-6.776,0-3.51-2.642-9.191-3.869-9.644-1.246.453-3.888,6.134-3.888,9.644,0,3.246,1.4,5.983,3.114,6.776a15.132,15.132,0,0,1,0,7.077c-.4.151-1.453-.34-1.283-.6,1.113-1.623-.415-5.077-1.4-6.3-1.963-2.491-6.417-3.907-7.474-3.869s.208,6.115,2.17,8.606c1.755,2.208,4.19,3.057,5.719,2.472a2.191,2.191,0,0,1,2.265.6,61.66,61.66,0,0,1,0,10.89c-.434,0-.792-.377-.755-.51.6-1.831-1.34-4.7-4.737-6.323-3.68-1.755-9.927-1.321-11.23-.83-1.3.51,3.246,6.285,6.927,8.021,3.34,1.585,6.945,1.434,8.436.056a2.6,2.6,0,0,1,1.34.529l.019-.038a18.928,18.928,0,0,1,.019,6.19Z" transform="translate(-39.663 448.52)"/></g></g></g></svg>