<svg xmlns="http://www.w3.org/2000/svg" width="93.467" height="93.467" viewBox="0 0 93.467 93.467"><defs><style>.a{fill:#ffcc21;}</style></defs><path class="a" d="M85.929,24.12a7.547,7.547,0,0,0,7.538-7.538A7.467,7.467,0,0,0,91.93,12.06a7.467,7.467,0,0,0,1.536-4.523A7.547,7.547,0,0,0,85.929,0a7.467,7.467,0,0,0-4.523,1.536A7.467,7.467,0,0,0,76.884,0a7.533,7.533,0,0,0-3.006,14.442l-5.285,5.285L68.3,19.44a9.688,9.688,0,0,0-6.9-2.857,9.8,9.8,0,0,0-7.8,3.9l-.059.08a11.7,11.7,0,0,0-6.306-6.177A10.463,10.463,0,0,0,35.454,4.071a10.536,10.536,0,0,0-16.637,0A10.465,10.465,0,0,0,7.031,14.388C3.375,15.9,0,19.5,0,24.12a10.619,10.619,0,0,0,3.336,7.15,10.446,10.446,0,0,0,2.769,9.9,10.252,10.252,0,0,0,3.35,2.241,4.418,4.418,0,0,1,2.605,4.093v9.778H4.523a4.513,4.513,0,0,0-1.141,8.881L9.389,84.19A13.551,13.551,0,0,0,22.26,93.467H71.208a13.547,13.547,0,0,0,12.87-9.276l6.007-18.023a4.513,4.513,0,0,0-1.141-8.882H85.852A19.62,19.62,0,0,0,72.676,40.27l.481-.384a9.881,9.881,0,0,0,3.727-7.755,10,10,0,0,0-2.91-7.022l-.235-.235,5.285-5.285A7.546,7.546,0,0,0,85.929,24.12ZM10.61,40.631a7.26,7.26,0,0,1-2.372-1.588A7.479,7.479,0,0,1,6.463,31.3l.317-.936L6.049,29.7c-1.134-1.025-3.033-3.115-3.033-5.578,0-3.573,3.086-6.394,5.99-7.234l1.207-.35-.128-1.25a7.466,7.466,0,0,1,9.092-8.1l1.032.227.565-.892a7.524,7.524,0,0,1,12.726,0l.565.892L35.1,7.188a7.464,7.464,0,0,1,9.091,8.1l-.127,1.25,1.207.35c2.9.841,5.988,3.661,5.988,7.234,0,2.463-1.9,4.553-3.033,5.578l-.731.663.317.936a7.481,7.481,0,0,1-1.777,7.747,7.267,7.267,0,0,1-2.369,1.586,7.307,7.307,0,0,0-4.418,6.214,11.38,11.38,0,0,0-4.571.285V39.381L36,34.069l10.1-7.215L44.35,24.4l-7.223,5.159,2.022-8.089-2.924-.73L31.7,38.831l-.039,9.531a12.157,12.157,0,0,0-3.021,2.481V19.6H25.628V57.286H22.613V39.2L18.045,20.74l-2.924.73,2.022,8.089L9.921,24.4,8.169,26.854l10.1,7.215L19.6,39.381v17.9H15.075V47.508A7.362,7.362,0,0,0,10.61,40.631Zm27.078,9.117a9.054,9.054,0,0,1,8.91,7.538H28.778A9.054,9.054,0,0,1,37.688,49.748ZM12.751,84.422h2.325v3.185A10.5,10.5,0,0,1,12.751,84.422Zm59.611,0h3.015v5.141a10.516,10.516,0,0,1-3.015.8Zm-3.015,6.03H66.331v-6.03h3.015Zm-6.03,0H60.3v-6.03h3.015Zm-6.03,0H54.271v-6.03h3.015Zm-6.03,0H48.241v-6.03h3.015Zm-6.03,0H42.211v-6.03h3.015Zm-6.03,0H36.181v-6.03H39.2Zm-6.03,0H30.151v-6.03h3.015Zm-6.03,0H24.12v-6.03h3.015Zm-6.03-.092a10.468,10.468,0,0,1-3.015-.8V84.422h3.015Zm57.286-2.753V84.422h2.325A10.5,10.5,0,0,1,78.391,87.607Zm3.437-6.2H11.638L6.614,66.331H86.853Zm8.623-19.6a1.509,1.509,0,0,1-1.508,1.508H4.523a1.508,1.508,0,1,1,0-3.015H88.944A1.509,1.509,0,0,1,90.452,61.809ZM49.825,57.286a16.415,16.415,0,0,1,2.336-7.058l6.627,2.654,7.536-3.015,7.542,3.015L80.5,50.228a16.428,16.428,0,0,1,2.336,7.06H49.825Zm28.817-9.564-4.777,1.91-7.542-3.015-7.536,3.015-4.767-1.908a16.5,16.5,0,0,1,24.622,0ZM71.273,37.531l-.81.649-7.589-7.589-2.132,2.132,6.519,6.518c-.309-.013-.615-.045-.929-.045a19.622,19.622,0,0,0-3.559.339l-2.913-2.913-2.132,2.132,1.716,1.716a19.427,19.427,0,0,0-3.217,1.564l-2.4-2.4L51.7,41.769,53.733,43.8a19.662,19.662,0,0,0-5.881,8.525,12.121,12.121,0,0,0-5.641-4.707V47.51a4.414,4.414,0,0,1,2.607-4.092,10.3,10.3,0,0,0,3.347-2.24,10.45,10.45,0,0,0,2.771-9.9,10.934,10.934,0,0,0,3.3-6.6L56.018,22.3a6.769,6.769,0,0,1,5.389-2.7,6.691,6.691,0,0,1,4.764,1.973l5.671,5.672a6.909,6.909,0,0,1-.57,10.285Zm-.548-15.672,8.109-8.109a8.847,8.847,0,0,0,2.573-6.213H78.391a5.81,5.81,0,0,1-1.69,4.081L76.317,12a4.511,4.511,0,0,1,.567-8.988A4.456,4.456,0,0,1,80.271,4.58l1.135,1.3,1.135-1.3a4.456,4.456,0,0,1,3.388-1.565,4.528,4.528,0,0,1,4.523,4.523,4.456,4.456,0,0,1-1.565,3.388l-1.3,1.135,1.3,1.135a4.456,4.456,0,0,1,1.565,3.388,4.511,4.511,0,0,1-8.988.567l.384-.384a5.81,5.81,0,0,1,4.081-1.69V12.06a8.847,8.847,0,0,0-6.213,2.573l-8.109,8.109Zm0,0"/><path class="a" d="M216,368h12.06v3.015H216Zm0,0" transform="translate(-175.297 -298.654)"/><path class="a" d="M216,400h12.06v3.015H216Zm0,0" transform="translate(-175.297 -324.624)"/><path class="a" d="M152,368h3.015v9.045H152Zm0,0" transform="translate(-123.357 -298.654)"/><path class="a" d="M184,368h3.015v9.045H184Zm0,0" transform="translate(-149.327 -298.654)"/><path class="a" d="M360,368h12.06v3.015H360Zm0,0" transform="translate(-292.161 -298.654)"/><path class="a" d="M360,400h12.06v3.015H360Zm0,0" transform="translate(-292.161 -324.624)"/><path class="a" d="M296,368h3.015v9.045H296Zm0,0" transform="translate(-240.222 -298.654)"/><path class="a" d="M328,368h3.015v9.045H328Zm0,0" transform="translate(-266.191 -298.654)"/><path class="a" d="M72,368H84.06v3.015H72Zm0,0" transform="translate(-58.432 -298.654)"/><path class="a" d="M72,400H84.06v3.015H72Zm0,0" transform="translate(-58.432 -324.624)"/></svg>