<svg xmlns="http://www.w3.org/2000/svg" width="93.467" height="93.467" viewBox="0 0 93.467 93.467"><defs><style>.a{fill:#ffcc21;}</style></defs><g transform="translate(0)"><path class="a" d="M190.672,134.03A6.036,6.036,0,0,0,196.7,128h-3.015a3,3,0,0,1-5.022,2.23l-2.017,2.24A6.013,6.013,0,0,0,190.672,134.03Zm0,0" transform="translate(-151.476 -103.88)"/><path class="a" d="M73.687,118.03H76.7a6.013,6.013,0,0,0-10.054-4.47l2.017,2.24a3,3,0,0,1,5.022,2.23Zm0,0" transform="translate(-54.089 -90.895)"/><path class="a" d="M142.03,75.015a3.013,3.013,0,0,1,2.007.785l2.017-2.24A6.013,6.013,0,0,0,136,78.03h3.015A3.018,3.018,0,0,1,142.03,75.015Zm0,0" transform="translate(-110.372 -58.432)"/><path class="a" d="M88.944,54.271H83.826l2.043-20.43c.039-.4.06-.8.06-1.2v-.98a12.008,12.008,0,0,0-2.979-7.912l1.6-19.224H78.391V0H69.346V4.523H63.185l1.6,19.224a12.008,12.008,0,0,0-2.979,7.912v.98c0,.4.021.8.06,1.2l.682,6.818a16.435,16.435,0,0,0-5.218-1.383,38.287,38.287,0,0,1,4.99-17.538l.795-1.39L60.5,18.85l-.794,1.39a41.3,41.3,0,0,0-5.386,19.03,16.579,16.579,0,0,0-12.107,7v-8.66a10.533,10.533,0,0,0,5.7-18.436A10.5,10.5,0,0,0,35.288,6.321a10.543,10.543,0,0,0-19.321,0,10.437,10.437,0,0,0-2.4-.291A10.549,10.549,0,0,0,3.4,19.4,10.525,10.525,0,0,0,9.045,37.567V51.256a16.762,16.762,0,0,0,.285,3.015H4.523a4.523,4.523,0,0,0,0,9.045H9.045V78.391A15.092,15.092,0,0,0,24.12,93.467H69.346A15.092,15.092,0,0,0,84.421,78.391V63.316h4.523a4.523,4.523,0,1,0,0-9.045Zm-16.659,0a16.511,16.511,0,0,0-3.725-9.045h5.309V42.211H65.736l-.6-6.03h8.736V33.166H64.851c-.01-.177-.027-.351-.027-.528v-.98a9.045,9.045,0,1,1,18.09,0v.98c0,.3-.015.6-.045.9L80.8,54.271ZM81.275,7.538,80.123,21.366a12.111,12.111,0,0,0-1.732-.88V7.538Zm-5.9-4.523V19.7a11,11,0,0,0-3.015,0V3.015Zm-6.03,4.523V20.486a12.11,12.11,0,0,0-1.732.88L66.462,7.538ZM63.375,44.543,60.11,47.808l-4.331-2.887-4.331,2.887-3.265-3.265a13.539,13.539,0,0,1,15.193,0ZM45.892,46.516l5.173,5.173,4.714-3.143,4.714,3.143,5.173-5.173a13.5,13.5,0,0,1,3.592,7.755H42.3A13.5,13.5,0,0,1,45.892,46.516ZM12.06,51.256V37.572a10.52,10.52,0,0,0,3.77-1.3l-1.51-2.608A7.538,7.538,0,1,1,10.553,19.6V16.583a10.462,10.462,0,0,0-4.431.989,7.477,7.477,0,0,1-.092-.989,7.547,7.547,0,0,1,7.538-7.538,7.4,7.4,0,0,1,1.6.19,10.513,10.513,0,0,0-.092,1.318H18.09a7.538,7.538,0,1,1,15.075,0h3.015a10.514,10.514,0,0,0-.092-1.318,7.4,7.4,0,0,1,1.6-.19,7.547,7.547,0,0,1,7.538,7.538,7.644,7.644,0,0,1-.078.852A10.493,10.493,0,0,0,41,16.583V19.6a7.538,7.538,0,1,1-2.76,14.553l-1.1,2.806a10.536,10.536,0,0,0,2.06.57V51.256a13.58,13.58,0,0,1-.377,3.015H27.135v-4.2a34.282,34.282,0,0,1,5.777-19.079L30.4,29.315a37.35,37.35,0,0,0-4.776,10.262,37.35,37.35,0,0,0-4.776-10.262l-2.509,1.672A34.279,34.279,0,0,1,24.12,50.066v4.2H12.437A13.58,13.58,0,0,1,12.06,51.256ZM88.944,60.3H78.391v3.015h3.015v3.015H70.854v3.015H81.406v3.015H70.854v3.015H81.406v3.015H70.854v3.015H81.01a11.991,11.991,0,0,1-1.234,3.015H70.854v3.015H77.3a12,12,0,0,1-7.951,3.015H24.12a12.019,12.019,0,0,1-8.4-3.425h6.894V84.012H13.457a12.058,12.058,0,0,1-1-2.605H22.613V78.391H12.06V75.376H22.613V72.361H12.06V69.346H22.613V66.331H12.06V63.316H75.376V60.3H4.523a1.508,1.508,0,0,1,0-3.015H88.944a1.508,1.508,0,0,1,0,3.015Zm0,0" transform="translate(0)"/><path class="a" d="M136,368h9.045v3.015H136Zm0,0" transform="translate(-110.372 -298.654)"/><path class="a" d="M200,352h18.09v3.015H200Zm0,0" transform="translate(-162.312 -285.669)"/><path class="a" d="M200,384h18.09v3.015H200Zm0,0" transform="translate(-162.312 -311.639)"/><path class="a" d="M312,368h9.045v3.015H312Zm0,0" transform="translate(-253.207 -298.654)"/><path class="a" d="M136,432h9.045v3.015H136Zm0,0" transform="translate(-110.372 -350.594)"/><path class="a" d="M200,416h18.09v3.015H200Zm0,0" transform="translate(-162.312 -337.609)"/><path class="a" d="M200,448h18.09v3.015H200Zm0,0" transform="translate(-162.312 -363.578)"/><path class="a" d="M312,432h9.045v3.015H312Zm0,0" transform="translate(-253.207 -350.594)"/><path class="a" d="M312,400h3.015v3.015H312Zm0,0" transform="translate(-253.207 -324.624)"/><path class="a" d="M344,400h3.015v3.015H344Zm0,0" transform="translate(-279.176 -324.624)"/><path class="a" d="M168,400h3.015v3.015H168Zm0,0" transform="translate(-136.342 -324.624)"/><path class="a" d="M136,400h3.015v3.015H136Zm0,0" transform="translate(-110.372 -324.624)"/></g></svg>