<?xml version="1.0" encoding="UTF-8" standalone="no"?>
<!DOCTYPE svg PUBLIC "-//W3C//DTD SVG 1.1//EN" "http://www.w3.org/Graphics/SVG/1.1/DTD/svg11.dtd">
<svg width="100%" height="100%" viewBox="0 0 50 50" version="1.1" xmlns="http://www.w3.org/2000/svg" xmlns:xlink="http://www.w3.org/1999/xlink" xml:space="preserve" xmlns:serif="http://www.serif.com/" style="fill-rule:evenodd;clip-rule:evenodd;stroke-linejoin:round;stroke-miterlimit:2;">
    <path d="M50,5C50,2.24 47.76,0 45,0L5,0C2.24,0 0,2.24 0,5L0,45C0,47.76 2.24,50 5,50L45,50C47.76,50 50,47.76 50,45L50,5Z" style="fill:rgb(255,204,33);"/>
    <g transform="matrix(1,0,0,1,-0.997263,12.0648)">
        <path d="M33.561,16.623C32.128,16.625 30.774,17.293 29.9,18.428L22.792,14.458C22.963,13.967 23.05,13.452 23.05,12.932C23.051,12.41 22.962,11.892 22.787,11.401L29.887,7.436C30.761,8.574 32.117,9.242 33.552,9.242C36.087,9.242 38.173,7.157 38.173,4.621C38.173,2.086 36.087,0 33.552,0C31.017,0 28.931,2.086 28.931,4.621C28.931,4.623 28.931,4.624 28.931,4.626C28.93,5.148 29.019,5.666 29.194,6.157L22.094,10.122C21.22,8.983 19.863,8.314 18.428,8.314C15.892,8.314 13.806,10.401 13.806,12.936C13.806,15.472 15.892,17.558 18.428,17.558C19.87,17.558 21.231,16.883 22.105,15.736L29.205,19.706C29.03,20.201 28.941,20.721 28.941,21.246C28.941,23.783 31.028,25.87 33.565,25.87C36.102,25.87 38.189,23.783 38.189,21.246C38.189,18.709 36.102,16.622 33.565,16.622C33.562,16.622 33.56,16.622 33.557,16.622L33.561,16.623ZM33.561,1.456C35.303,1.456 36.736,2.889 36.736,4.631C36.736,6.373 35.303,7.806 33.561,7.806C31.819,7.806 30.386,6.373 30.386,4.631C30.388,2.89 31.82,1.458 33.561,1.456ZM18.431,16.107C16.689,16.107 15.256,14.674 15.256,12.932C15.256,11.19 16.689,9.757 18.431,9.757C20.173,9.757 21.606,11.19 21.606,12.932C21.604,14.673 20.172,16.105 18.431,16.107ZM33.561,24.419C31.819,24.419 30.386,22.986 30.386,21.244C30.386,19.502 31.819,18.069 33.561,18.069C35.303,18.069 36.736,19.502 36.736,21.244C36.734,22.985 35.302,24.417 33.561,24.419Z" style="fill-rule:nonzero;"/>
    </g>
</svg>
